<svg xmlns="http://www.w3.org/2000/svg" viewBox="0 0 57.14 17.31"><g id="Layer_2" data-name="Layer 2"><g id="Layer_6" data-name="Layer 6"><path d="M0,8V5.15H1.13v-.7C1.13,1.1,3.6,0,6.43,0A12.48,12.48,0,0,1,8.62.2V3.45c-.45-.05-.85-.1-1.17-.1-1.42,0-1.63.5-1.63,1.8H8.3V8H5.82v9.32H1.13V8Z"/><path d="M22.2,11.1c0,4.22-2.88,6.17-6.85,6.17S8.5,15.32,8.5,11.1s2.9-6.53,6.85-6.53S22.2,6.92,22.2,11.1Zm-6.85,2.62c1.55,0,2.37-1.12,2.37-2.67s-.77-2.8-2.37-2.8S13,9.5,13,11.05,13.8,13.72,15.35,13.72Z"/><path d="M29.39,8.5C28,8.5,27.77,10.42,27.77,12v5.23h-4.7V.4h4.7V7.55h.17A3.44,3.44,0,0,1,31.59,5c3.53,0,4.18,2.6,4.18,5.55v6.7h-4.7V11.6C31.07,9.7,30.74,8.5,29.39,8.5Z"/><path d="M36.89.4h4.7V17.25h-4.7Z"/><path d="M42.71,2.25c0-1.52.9-2.2,2.4-2.2s2.38.7,2.38,2.2-.9,2.17-2.43,2.17S42.71,3.75,42.71,2.25Zm0,15V5.15h4.7v12.1Z"/><path d="M57.14,4.34c0,2.68-1.83,3.92-4.35,3.92S48.43,7,48.43,4.34,50.28.19,52.79.19,57.14,1.68,57.14,4.34ZM52.79,6a1.5,1.5,0,0,0,1.51-1.7c0-1-.5-1.78-1.51-1.78s-1.51.79-1.51,1.78A1.5,1.5,0,0,0,52.79,6Z"/><path d="M57.14,13.39c0,2.68-1.83,3.92-4.35,3.92s-4.36-1.24-4.36-3.92,1.85-4.15,4.36-4.15S57.14,10.73,57.14,13.39Zm-4.35,1.67a1.51,1.51,0,0,0,1.51-1.71c0-1-.5-1.78-1.51-1.78s-1.51.8-1.51,1.78A1.5,1.5,0,0,0,52.79,15.06Z"/></g></g></svg>